<svg width="45" height="45" viewBox="0 0 45 45" fill="none" xmlns="http://www.w3.org/2000/svg">
    <path fill-rule="evenodd" clip-rule="evenodd"
          d="M22.5 45C18.0499 45 13.6998 43.6804 9.99967 41.2081C6.29957 38.7357 3.4157 35.2217 1.71272 31.1104C0.00975236 26.9991 -0.435827 22.475 0.43234 18.1105C1.30051 13.7459 3.44343 9.73677 6.59011 6.59009C9.73679 3.44341 13.7459 1.3005 18.1105 0.432335C22.475 -0.435832 26.9991 0.00976652 31.1104 1.71274C35.2217 3.41571 38.7357 6.29956 41.2081 9.99967C43.6804 13.6998 45 18.0499 45 22.5C45 28.4674 42.6295 34.1904 38.4099 38.4099C34.1903 42.6295 28.4674 45 22.5 45ZM35.4487 14.5187C34.95 14.0205 34.2738 13.7406 33.5687 13.7406C32.8637 13.7406 32.1875 14.0205 31.6888 14.5187L18.7175 27.49L14.5075 23.28C14.01 22.8016 13.3447 22.5375 12.6545 22.5443C11.9643 22.5511 11.3043 22.8282 10.8163 23.3163C10.3283 23.8043 10.0511 24.4643 10.0443 25.1545C10.0375 25.8447 10.3017 26.5099 10.78 27.0075L16.7438 32.9713C17.3008 33.4542 18.0134 33.7201 18.7506 33.7201C19.4879 33.7201 20.2004 33.4542 20.7575 32.9713L35.4487 18.28C35.6958 18.0331 35.8918 17.7399 36.0255 17.4172C36.1593 17.0945 36.2281 16.7487 36.2281 16.3994C36.2281 16.0501 36.1593 15.7042 36.0255 15.3815C35.8918 15.0588 35.6958 14.7657 35.4487 14.5187Z"
          fill="#37B04B"/>
</svg>
