<svg width="37" height="41" viewBox="0 0 37 41" fill="none" xmlns="http://www.w3.org/2000/svg">
    <path d="M33.0357 17.9375H31.0536V12.1719C31.0536 5.46133 25.421 0 18.5 0C11.579 0 5.94643 5.46133 5.94643 12.1719V17.9375H3.96429C1.77567 17.9375 0 19.6592 0 21.7812V37.1562C0 39.2783 1.77567 41 3.96429 41H33.0357C35.2243 41 37 39.2783 37 37.1562V21.7812C37 19.6592 35.2243 17.9375 33.0357 17.9375ZM21.8036 31.3906C21.8036 33.1604 20.3252 34.5938 18.5 34.5938C16.6748 34.5938 15.1964 33.1604 15.1964 31.3906V27.5469C15.1964 25.7771 16.6748 24.3438 18.5 24.3438C20.3252 24.3438 21.8036 25.7771 21.8036 27.5469V31.3906ZM24.4464 17.9375H12.5536V12.1719C12.5536 8.99277 15.2212 6.40625 18.5 6.40625C21.7788 6.40625 24.4464 8.99277 24.4464 12.1719V17.9375Z"
          fill="black"/>
</svg>
