<svg width="75" height="24" viewBox="0 0 75 24" fill="none" xmlns="http://www.w3.org/2000/svg">
    <path d="M15.4826 22.1139C15.0461 22.442 14.5609 22.7392 14.0254 23.0072C13.4915 23.2752 12.857 23.488 12.1268 23.6456C11.3949 23.8031 10.5332 23.8827 9.54174 23.8827C8.84396 23.8827 8.09587 23.8112 7.29911 23.6699C6.50234 23.5286 5.71368 23.2216 4.93477 22.7522C4.15423 22.2828 3.5457 21.6104 3.10918 20.7366C2.72783 19.9618 2.53635 18.7225 2.53635 17.0187V10.041H0V7.28955L8.10074 0H9.72024V5.537H15.1045V10.041H9.72186V14.5612C9.72186 15.3149 9.75919 15.9045 9.83708 16.33C9.91335 16.7556 10.1259 17.1113 10.4748 17.3955C10.8237 17.6798 11.3852 17.8211 12.1608 17.8211C13.2302 17.8211 14.337 17.428 15.4826 16.6419V22.1139Z"
          fill="white"/>
    <path d="M35.3824 22.2115C34.6181 22.5396 33.9122 22.8157 33.2631 23.0382C32.614 23.2624 31.8156 23.4589 30.8663 23.6278C29.917 23.7968 28.8541 23.8812 27.6744 23.8812C25.8958 23.8812 24.3461 23.5872 23.0268 22.996C21.7059 22.4064 20.6544 21.6447 19.869 20.7107C19.0835 19.7768 18.5042 18.7584 18.1342 17.6555C17.7626 16.5527 17.5776 15.4661 17.5776 14.3957C17.5776 13.0086 17.8113 11.7498 18.2819 10.6194C18.7509 9.48891 19.4048 8.52087 20.2454 7.712C21.086 6.90476 22.0483 6.2843 23.1339 5.85225C24.2195 5.42021 25.3733 5.20581 26.5952 5.20581C28.0573 5.20581 29.3799 5.50629 30.5645 6.10726C31.7474 6.70822 32.713 7.47811 33.4611 8.41691C34.2075 9.35572 34.7236 10.3449 35.0075 11.3811C35.2688 12.419 35.4002 13.5544 35.4002 14.7888C35.4002 14.9642 35.397 15.1022 35.3921 15.2062C35.3856 15.3102 35.384 15.4222 35.384 15.5424H24.484C24.583 16.3724 24.8281 17.0383 25.2208 17.5402C26.0062 18.5554 27.3157 19.0637 29.1494 19.0637C30.4152 19.0637 31.5414 18.9111 32.5296 18.6057C33.5162 18.3004 34.4688 17.9349 35.3856 17.5077V22.2115H35.3824ZM28.8849 12.7114C28.8736 11.5436 28.6366 10.7493 28.1725 10.3286C27.7084 9.90796 27.2038 9.69843 26.6585 9.69843C25.8618 9.69843 25.3052 10.0022 24.9887 10.608C24.6723 11.2138 24.5035 11.9155 24.4808 12.713H28.8849V12.7114Z"
          fill="white"/>
    <path d="M51.4035 18.3296C51.4035 18.799 51.3224 19.3236 51.1585 19.9018C50.9946 20.4801 50.6651 21.0794 50.1686 21.695C49.672 22.3122 48.9223 22.8303 47.9178 23.251C46.9134 23.6717 45.6379 23.8812 44.0882 23.8812C42.6472 23.8812 41.4593 23.7578 40.5197 23.5125C39.5818 23.2673 38.5724 22.8872 37.4917 22.3739V17.1488C38.3761 17.7936 39.2297 18.3345 40.0524 18.7698C40.8767 19.2067 41.7189 19.4243 42.5806 19.4243C42.9847 19.4243 43.3352 19.3399 43.6354 19.1709C43.9356 19.002 44.0849 18.7422 44.0849 18.3929C44.0849 17.9788 43.9178 17.6393 43.5851 17.3778C43.2524 17.1163 42.3924 16.5917 41.0082 15.8055C40.3753 15.4563 39.8236 15.0958 39.3546 14.7238C38.8856 14.3535 38.4621 13.8386 38.0856 13.184C37.7091 12.5295 37.5209 11.7255 37.5209 10.7753C37.5209 9.72604 37.8065 8.78237 38.3793 7.94102C38.9522 7.09966 39.7684 6.43373 40.8264 5.94321C41.8845 5.45107 43.1064 5.20581 44.4922 5.20581C45.7028 5.20581 46.7884 5.36174 47.7491 5.67359C48.7097 5.98544 49.6688 6.38663 50.6294 6.87714V11.8083C49.8116 11.1749 49.0473 10.7331 48.3381 10.4813C47.629 10.2296 47.0286 10.1045 46.5385 10.1045C45.9933 10.1045 45.5649 10.1678 45.2533 10.2929C44.9417 10.418 44.7859 10.6567 44.7859 11.0059C44.7859 11.2902 44.8492 11.5192 44.9742 11.6946C45.0991 11.87 45.25 12.0113 45.4237 12.1202C45.5973 12.229 45.9965 12.4483 46.618 12.7747C47.2395 13.1028 47.7247 13.3643 48.0752 13.5609C48.773 13.9539 49.3523 14.347 49.81 14.74C50.2676 15.1331 50.6473 15.6269 50.9475 16.223C51.2542 16.8207 51.4035 17.5224 51.4035 18.3296Z"
          fill="white"/>
    <path d="M68.3596 22.1139C67.923 22.442 67.4378 22.7392 66.9023 23.0072C66.3685 23.2752 65.7356 23.488 65.0037 23.6456C64.2719 23.8031 63.4102 23.8827 62.4187 23.8827C61.7209 23.8827 60.9728 23.8112 60.1761 23.6699C59.3793 23.5286 58.5906 23.2216 57.8117 22.7522C57.0312 22.2828 56.4227 21.6104 55.9861 20.7366C55.6048 19.9618 55.4133 18.7225 55.4133 17.0187V10.041H52.877V7.28955L60.9777 0H62.5972V5.537H67.9815V10.041H62.5972V14.5612C62.5972 15.3149 62.6345 15.9045 62.7124 16.33C62.7887 16.7556 63.0013 17.1113 63.3501 17.3955C63.699 17.6798 64.2605 17.8211 65.0362 17.8211C66.1056 17.8211 67.2123 17.428 68.3579 16.6419V22.1139H68.3596Z"
          fill="white"/>
    <path d="M72.691 10.1904C73.9663 10.1904 75.0002 9.15564 75.0002 7.87915C75.0002 6.60267 73.9663 5.56787 72.691 5.56787C71.4157 5.56787 70.3818 6.60267 70.3818 7.87915C70.3818 9.15564 71.4157 10.1904 72.691 10.1904Z"
          fill="white"/>
</svg>
