<svg width="512" height="512" viewBox="0 0 512 512" fill="none" xmlns="http://www.w3.org/2000/svg">
<g clip-path="url(#clip0_5_741)">
<circle cx="256" cy="256" r="256" fill="#2253FF"/>
<path d="M355.65 400.026C349.481 404.658 342.625 408.855 335.081 412.616C327.536 416.399 318.593 419.403 308.274 421.628C297.955 423.852 285.778 424.976 271.744 424.976C261.884 424.976 251.335 423.967 240.076 421.972C228.817 419.977 217.695 415.665 206.688 409.038C195.681 402.411 187.082 392.941 180.913 380.603C175.525 369.665 172.819 352.169 172.819 328.137V229.693H137V190.847L251.404 88H274.29V166.127H350.33V229.693H274.29V293.487C274.29 304.128 274.817 312.429 275.918 318.46C276.996 324.468 280 329.49 284.93 333.48C289.86 337.493 297.794 339.488 308.733 339.488C323.821 339.488 339.483 333.938 355.65 322.84V400.026Z" fill="white"/>
</g>
<defs>
<clipPath id="clip0_5_741">
<rect width="512" height="512" fill="white"/>
</clipPath>
</defs>
</svg>
